<svg width="59" height="59" viewBox="0 0 59 59" fill="none" xmlns="http://www.w3.org/2000/svg">
<path d="M32.5 54.499H53.5V56.999C53.5 57.3968 53.342 57.7784 53.0607 58.0597C52.7794 58.341 52.3978 58.499 52 58.499H34C33.6022 58.499 33.2206 58.341 32.9393 58.0597C32.658 57.7784 32.5 57.3968 32.5 56.999V54.499Z" fill="#373644" stroke="black"/>
<path d="M29.114 34.7596L29.1143 34.7606C29.3708 35.5274 29.5011 36.3308 29.5002 37.1394M29.114 34.7596L29.0002 52.9991M29.114 34.7596L28.7984 33.8221L28.1652 3.75281C28.4075 3.58557 28.6971 3.49596 28.9949 3.4991L28.9949 3.49913H29.0002H56.9994C57.397 3.5005 57.7779 3.65906 58.0591 3.94022C58.3403 4.22141 58.4988 4.60239 58.5002 5.00003C58.5002 5.00023 58.5002 5.00043 58.5002 5.00063L58.5002 28.8591V28.8597C58.501 29.5602 58.3881 30.2562 58.166 30.9206L58.1658 30.921L56.886 34.7606L29.114 34.7596ZM29.5002 37.1394C29.5002 37.1395 29.5002 37.1396 29.5002 37.1397L29.0002 37.1391H29.5002V37.1394ZM29.5002 37.1394V52.9983M29.5002 52.9983C29.5002 52.9981 29.5002 52.9979 29.5002 52.9976L29.0002 52.9991M29.5002 52.9983C29.5015 53.3959 29.6601 53.7769 29.9412 54.058C30.2223 54.3391 30.6031 54.4976 31.0005 54.4991L29.0002 52.9991M29.5002 52.9983V52.9991H29.0002M54.9987 54.4991H31.0017H54.9987ZM56.0591 54.058C55.778 54.3391 55.3972 54.4976 54.9998 54.4991L56.5002 37.1391V37.1397L56.5002 52.9976C56.5002 52.9978 56.5002 52.998 56.5002 52.9982C56.4988 53.3959 56.3403 53.7769 56.0591 54.058Z" fill="#4A4A59" stroke="black"/>
<path d="M34 31.499H36C36.2761 31.499 36.5 31.7229 36.5 31.999V33.999C36.5 34.2752 36.2761 34.499 36 34.499H34C33.7239 34.499 33.5 34.2752 33.5 33.999V31.999C33.5 31.7229 33.7239 31.499 34 31.499Z" fill="#70707C" stroke="black"/>
<path d="M42 31.499H44C44.2761 31.499 44.5 31.7229 44.5 31.999V33.999C44.5 34.2752 44.2761 34.499 44 34.499H42C41.7239 34.499 41.5 34.2752 41.5 33.999V31.999C41.5 31.7229 41.7239 31.499 42 31.499Z" fill="#70707C" stroke="black"/>
<path d="M50 31.499H52C52.2761 31.499 52.5 31.7229 52.5 31.999V33.999C52.5 34.2752 52.2761 34.499 52 34.499H50C49.7239 34.499 49.5 34.2752 49.5 33.999V31.999C49.5 31.7229 49.7239 31.499 50 31.499Z" fill="#70707C" stroke="black"/>
<path d="M34 39.499H36C36.2761 39.499 36.5 39.7229 36.5 39.999V41.999C36.5 42.2752 36.2761 42.499 36 42.499H34C33.7239 42.499 33.5 42.2752 33.5 41.999V39.999C33.5 39.7229 33.7239 39.499 34 39.499Z" fill="#70707C" stroke="black"/>
<path d="M42 39.499H44C44.2761 39.499 44.5 39.7229 44.5 39.999V41.999C44.5 42.2752 44.2761 42.499 44 42.499H42C41.7239 42.499 41.5 42.2752 41.5 41.999V39.999C41.5 39.7229 41.7239 39.499 42 39.499Z" fill="#70707C" stroke="black"/>
<path d="M50 39.499H52C52.2761 39.499 52.5 39.7229 52.5 39.999V41.999C52.5 42.2752 52.2761 42.499 52 42.499H50C49.7239 42.499 49.5 42.2752 49.5 41.999V39.999C49.5 39.7229 49.7239 39.499 50 39.499Z" fill="#70707C" stroke="black"/>
<path d="M34 47.499H36C36.1326 47.499 36.2598 47.5517 36.3536 47.6455C36.4473 47.7392 36.5 47.8664 36.5 47.999V49.999C36.5 50.1316 36.4473 50.2588 36.3536 50.3526C36.2598 50.4463 36.1326 50.499 36 50.499C35.337 50.499 34.7011 50.2356 34.2322 49.7668C33.7634 49.2979 33.5 48.6621 33.5 47.999C33.5 47.8664 33.5527 47.7392 33.6464 47.6455C33.7402 47.5517 33.8674 47.499 34 47.499Z" fill="#F8536C" stroke="black"/>
<path d="M42 47.499H44C44.2761 47.499 44.5 47.7229 44.5 47.999V49.999C44.5 50.2752 44.2761 50.499 44 50.499H42C41.7239 50.499 41.5 50.2752 41.5 49.999V47.999C41.5 47.7229 41.7239 47.499 42 47.499Z" fill="#FCCB55" stroke="black"/>
<path d="M50 47.499H52C52.1326 47.499 52.2598 47.5517 52.3536 47.6455C52.4473 47.7392 52.5 47.8664 52.5 47.999C52.5 48.6621 52.2366 49.2979 51.7678 49.7668C51.2989 50.2356 50.663 50.499 50 50.499C49.8674 50.499 49.7402 50.4463 49.6464 50.3526C49.5527 50.2588 49.5 50.1316 49.5 49.999V47.999C49.5 47.8664 49.5527 47.7392 49.6464 47.6455C49.7402 47.5517 49.8674 47.499 50 47.499Z" fill="#96BC58" stroke="black"/>
<path d="M34 23.499H36C36.2761 23.499 36.5 23.7229 36.5 23.999V25.999C36.5 26.2752 36.2761 26.499 36 26.499H34C33.7239 26.499 33.5 26.2752 33.5 25.999V23.999C33.5 23.7229 33.7239 23.499 34 23.499Z" fill="#70707C" stroke="black"/>
<path d="M42 23.499H44C44.2761 23.499 44.5 23.7229 44.5 23.999V25.999C44.5 26.2752 44.2761 26.499 44 26.499H42C41.7239 26.499 41.5 26.2752 41.5 25.999V23.999C41.5 23.7229 41.7239 23.499 42 23.499Z" fill="#70707C" stroke="black"/>
<path d="M50 23.499H52C52.2761 23.499 52.5 23.7229 52.5 23.999V25.999C52.5 26.2752 52.2761 26.499 52 26.499H50C49.7239 26.499 49.5 26.2752 49.5 25.999V23.999C49.5 23.7229 49.7239 23.499 50 23.499Z" fill="#70707C" stroke="black"/>
<path d="M31.5 14.2528L32.4167 7.49902H54C54.1326 7.49902 54.2598 7.5517 54.3536 7.64547C54.4473 7.73924 54.5 7.86641 54.5 7.99902V17.999C54.5 18.1316 54.4473 18.2588 54.3536 18.3526C54.2598 18.4463 54.1326 18.499 54 18.499H32C31.8674 18.499 31.7402 18.4463 31.6464 18.3526C31.5527 18.2588 31.5 18.1316 31.5 17.999V14.2528Z" fill="#96BC58" stroke="black"/>
<path d="M9.39251 1.52412L29.3368 4.25969C30.7047 4.44732 31.6615 5.70832 31.4739 7.07622L26.4161 43.951C26.2285 45.3189 24.9675 46.2757 23.5996 46.0881L3.6553 43.3525C2.28739 43.1649 1.33059 41.9039 1.51821 40.536L6.57598 3.66121C6.7636 2.29331 8.0246 1.3365 9.39251 1.52412Z" fill="#B9DBF4" stroke="black"/>
<path d="M24.9297 6.70346L24.9295 6.70343L12.9808 5.06662C12.9806 5.06659 12.9804 5.06656 12.9802 5.06653C12.5826 5.01078 12.2233 4.7997 11.9811 4.47953C11.7389 4.15946 11.6335 3.75647 11.6878 3.35882L11.8998 1.86299L26.8415 3.91807L26.6374 5.41155C26.6374 5.41182 26.6373 5.4121 26.6373 5.41237C26.5815 5.80961 26.3706 6.16857 26.0506 6.41059C25.7305 6.65278 25.3274 6.7581 24.9297 6.70346Z" fill="#373644" stroke="black"/>
<path d="M26.394 14.5103L26.3939 14.5114L26.1239 16.4914L26.1238 16.4916L25.1739 23.4813C25.1472 23.677 25.0821 23.8655 24.9824 24.0359C24.8826 24.2064 24.7502 24.3555 24.5927 24.4746C24.4353 24.5938 24.2558 24.6807 24.0646 24.7303C23.8735 24.7799 23.6744 24.7913 23.4789 24.7638L23.4771 24.7636L9.51865 22.8538C9.51833 22.8538 9.51802 22.8537 9.51771 22.8537C9.12305 22.7981 8.76644 22.5885 8.52595 22.2707C8.28532 21.9527 8.18056 21.5522 8.23462 21.1571C8.23463 21.1571 8.23463 21.157 8.23464 21.157C8.23465 21.1569 8.23465 21.1569 8.23466 21.1568L9.19462 14.1771L9.1947 14.1765L9.46464 12.197L9.4647 12.1965L9.60464 11.177L9.60464 11.177C9.65866 10.7833 9.86671 10.4271 10.1831 10.1866C10.4994 9.94626 10.898 9.84117 11.2917 9.89439C11.2918 9.89441 11.292 9.89443 11.2921 9.89445L25.2512 11.8143L25.2513 11.8143C25.645 11.8684 26.0012 12.0764 26.2416 12.3928C26.482 12.7091 26.5871 13.1078 26.5339 13.5014C26.5339 13.5015 26.5338 13.5017 26.5338 13.5018L26.394 14.5103Z" fill="#2783EC" stroke="black"/>
<path d="M34 9.49902H52C52.1326 9.49902 52.2598 9.5517 52.3536 9.64547C52.4473 9.73924 52.5 9.86641 52.5 9.99902V15.999C52.5 16.1316 52.4473 16.2588 52.3536 16.3526C52.2598 16.4463 52.1326 16.499 52 16.499H34C33.8674 16.499 33.7402 16.4463 33.6464 16.3526C33.5527 16.2588 33.5 16.1316 33.5 15.999V9.99902C33.5 9.86641 33.5527 9.73924 33.6464 9.64547C33.7402 9.5517 33.8674 9.49902 34 9.49902Z" fill="#B2D372" stroke="black"/>
<path d="M36.6451 11.9384L36.9986 12.2919L37.3522 11.9384L37.6451 11.6454C37.6451 11.6454 37.6452 11.6454 37.6452 11.6454C37.7389 11.5517 37.8661 11.499 37.9986 11.499C38.1312 11.499 38.2584 11.5517 38.3521 11.6454C38.4458 11.7392 38.4984 11.8663 38.4984 11.9988C38.4984 12.1314 38.4458 12.2585 38.3521 12.3523C38.352 12.3523 38.352 12.3523 38.352 12.3523L38.0591 12.6453L37.7055 12.9988L38.0591 13.3524L38.3485 13.6418C38.438 13.7358 38.4874 13.861 38.4863 13.9909C38.4852 14.122 38.4326 14.2474 38.3399 14.3401C38.2472 14.4328 38.1218 14.4854 37.9907 14.4865C37.8608 14.4876 37.7356 14.4382 37.6416 14.3487L37.3522 14.0593L36.9986 13.7057L36.6451 14.0593L36.3521 14.3523L36.352 14.3522L36.346 14.3585C36.2998 14.4062 36.2447 14.4443 36.1837 14.4705C36.1227 14.4967 36.0571 14.5105 35.9907 14.5111C35.9243 14.5117 35.8584 14.499 35.797 14.4739C35.7355 14.4487 35.6797 14.4116 35.6328 14.3647C35.5858 14.3177 35.5487 14.2619 35.5236 14.2004C35.4984 14.139 35.4858 14.0731 35.4863 14.0068C35.4869 13.9404 35.5007 13.8747 35.5269 13.8138C35.5531 13.7528 35.5912 13.6976 35.639 13.6515L35.639 13.6515L35.6452 13.6454L35.9382 13.3524L36.2917 12.9988L35.9382 12.6453L35.6488 12.3559C35.5593 12.2618 35.5098 12.1367 35.5109 12.0068C35.5121 11.8757 35.5646 11.7502 35.6573 11.6575C35.7501 11.5648 35.8755 11.5123 36.0066 11.5111C36.1365 11.51 36.2616 11.5595 36.3557 11.649L36.6451 11.9384ZM44.0591 13.3524L44.3485 13.6418C44.438 13.7358 44.4874 13.861 44.4863 13.9909C44.4852 14.122 44.4326 14.2474 44.3399 14.3401C44.2472 14.4328 44.1218 14.4854 43.9907 14.4865C43.8608 14.4876 43.7356 14.4382 43.6416 14.3486L43.3522 14.0593L42.9986 13.7057L42.6451 14.0593L42.3521 14.3523L42.352 14.3522L42.346 14.3585C42.2998 14.4062 42.2447 14.4443 42.1837 14.4705C42.1227 14.4967 42.0571 14.5105 41.9907 14.5111C41.9243 14.5117 41.8584 14.499 41.797 14.4739C41.7355 14.4487 41.6797 14.4116 41.6328 14.3647C41.5858 14.3177 41.5487 14.2619 41.5236 14.2004C41.4984 14.139 41.4858 14.0731 41.4863 14.0068C41.4869 13.9404 41.5007 13.8747 41.5269 13.8138C41.5531 13.7528 41.5912 13.6976 41.639 13.6515L41.639 13.6515L41.6452 13.6454L41.9382 13.3524L42.2917 12.9988L41.9382 12.6453L41.6488 12.3559C41.5593 12.2618 41.5098 12.1367 41.5109 12.0068C41.5121 11.8757 41.5646 11.7502 41.6573 11.6575C41.7501 11.5648 41.8755 11.5123 42.0066 11.5111C42.1365 11.51 42.2616 11.5595 42.3557 11.649L42.6451 11.9384L42.9986 12.2919L43.3522 11.9384L43.6451 11.6454C43.7389 11.5517 43.866 11.499 43.9986 11.499C44.1312 11.499 44.2584 11.5517 44.3521 11.6454C44.4458 11.7392 44.4984 11.8663 44.4984 11.9988C44.4984 12.1314 44.4458 12.2585 44.3521 12.3523C44.352 12.3523 44.352 12.3523 44.352 12.3523L44.0591 12.6453L43.7055 12.9988L44.0591 13.3524ZM50.0591 12.6453L49.7055 12.9988L50.0591 13.3524L50.3485 13.6418C50.438 13.7358 50.4874 13.861 50.4863 13.9909C50.4852 14.122 50.4326 14.2474 50.3399 14.3401C50.2472 14.4328 50.1218 14.4854 49.9907 14.4865C49.8608 14.4876 49.7356 14.4382 49.6416 14.3486L49.3522 14.0593L48.9986 13.7057L48.6451 14.0593L48.3521 14.3523L48.352 14.3522L48.346 14.3585C48.2998 14.4062 48.2447 14.4443 48.1837 14.4705C48.1227 14.4967 48.0571 14.5105 47.9907 14.5111C47.9243 14.5117 47.8584 14.499 47.797 14.4739C47.7355 14.4487 47.6797 14.4116 47.6328 14.3647C47.5858 14.3177 47.5487 14.2619 47.5236 14.2004C47.4984 14.139 47.4858 14.0731 47.4863 14.0068C47.4869 13.9404 47.5007 13.8747 47.5269 13.8138C47.5531 13.7528 47.5912 13.6976 47.639 13.6515L47.639 13.6515L47.6452 13.6454L47.9382 13.3524L48.2917 12.9988L47.9382 12.6453L47.6488 12.3559C47.5593 12.2618 47.5098 12.1367 47.5109 12.0068C47.5121 11.8757 47.5646 11.7502 47.6573 11.6575C47.7501 11.5648 47.8755 11.5123 48.0066 11.5111C48.1365 11.51 48.2617 11.5595 48.3557 11.649L48.6451 11.9384L48.9986 12.2919L49.3522 11.9384L49.6416 11.649C49.7356 11.5595 49.8608 11.51 49.9907 11.5111C50.1218 11.5123 50.2472 11.5648 50.3399 11.6575C50.4326 11.7502 50.4852 11.8757 50.4863 12.0068C50.4874 12.1367 50.438 12.2618 50.3485 12.3559L50.0591 12.6453Z" fill="#7E9B48" stroke="black"/>
<path d="M19.4258 42.2778C19.3342 42.3639 19.2136 42.4123 19.088 42.4135C19.0647 42.4134 19.0415 42.4119 19.0185 42.4089C19.018 42.4089 19.0176 42.4088 19.0172 42.4088L9.06813 41.044C8.94057 41.0227 8.82615 40.9528 8.74898 40.8489C8.67097 40.7438 8.63724 40.6124 8.65504 40.4828C8.67284 40.3531 8.74074 40.2357 8.84418 40.1555C8.94652 40.0762 9.07557 40.0398 9.20416 40.0537L19.1538 41.4185C19.1541 41.4186 19.1545 41.4186 19.1548 41.4187C19.2794 41.4367 19.3926 41.501 19.4718 41.5988C19.5513 41.6969 19.5907 41.8214 19.5822 41.9474C19.5736 42.0733 19.5177 42.1914 19.4258 42.2778Z" fill="#8EADC1" stroke="black"/>
<path d="M26.1924 15.9929L9.26219 13.684L9.39708 12.6948L26.3272 15.0037L26.1924 15.9929Z" fill="#373644" stroke="black"/>
<path d="M12.1245 19.2192L12.1241 19.2192C12.1034 19.2192 12.0827 19.2177 12.0622 19.2146L12.0622 19.2146L12.0567 19.2138C11.9253 19.1957 11.8066 19.1262 11.7265 19.0205C11.6464 18.9148 11.6116 18.7817 11.6297 18.6503L11.6297 18.65L11.7767 17.577L11.7768 17.577L11.778 17.5671C11.7857 17.501 11.8065 17.4371 11.8392 17.3792C11.8719 17.3213 11.9158 17.2705 11.9684 17.2297C12.021 17.189 12.0812 17.1592 12.1454 17.142C12.2097 17.1248 12.2767 17.1206 12.3426 17.1296C12.4085 17.1387 12.472 17.1608 12.5292 17.1947C12.5865 17.2285 12.6364 17.2735 12.676 17.3269C12.7157 17.3803 12.7443 17.4411 12.7602 17.5057C12.776 17.5703 12.7789 17.6374 12.7685 17.7031L12.7684 17.7031L12.767 17.7129L12.619 18.7869L12.619 18.7872C12.6026 18.9067 12.5435 19.0163 12.4526 19.0957C12.3617 19.1751 12.2452 19.2189 12.1245 19.2192Z" fill="#FCCB55" stroke="black"/>
<path d="M21.2348 19.3737H21.2347C21.2113 19.3737 21.1879 19.3722 21.1647 19.3692C21.1643 19.3691 21.164 19.3691 21.1636 19.369L16.1862 18.6864C16.1862 18.6864 16.1862 18.6864 16.1861 18.6864C16.0547 18.6683 15.9358 18.5988 15.8556 18.4931C15.7754 18.3874 15.7405 18.2542 15.7586 18.1227C15.7766 17.9912 15.8461 17.8723 15.9518 17.7922C16.0575 17.712 16.1908 17.677 16.3222 17.6951L16.3222 17.6951L21.3012 18.3781L21.3023 18.3782C21.428 18.3952 21.5425 18.4593 21.6227 18.5576C21.7029 18.6559 21.7428 18.781 21.7342 18.9075C21.7256 19.0341 21.6692 19.1527 21.5765 19.2392C21.4838 19.3258 21.3616 19.3739 21.2348 19.3737Z" fill="#0F66B5" stroke="black"/>
<path d="M12.6646 37.4748H12.6655C12.7316 37.4749 12.797 37.462 12.858 37.4366C12.9189 37.4114 12.9741 37.3744 13.0206 37.3277C13.0208 37.3276 13.0209 37.3275 13.021 37.3273L20.0871 30.1813L20.0872 30.1811C20.1334 30.1345 20.17 30.0791 20.1948 30.0183C20.2196 29.9575 20.2322 29.8924 20.2318 29.8267C20.2315 29.761 20.2182 29.696 20.1927 29.6354C20.1673 29.5749 20.1302 29.5199 20.0835 29.4737C20.0368 29.4275 19.9814 29.391 19.9206 29.3662C19.8598 29.3414 19.7947 29.3288 19.729 29.3291C19.6633 29.3295 19.5983 29.3427 19.5378 29.3682C19.4773 29.3936 19.4224 29.4307 19.3762 29.4773L12.6646 37.4748ZM12.6646 37.4748H12.6187C12.5519 37.4686 12.4869 37.4491 12.4277 37.4172C12.3646 37.3832 12.3095 37.336 12.2662 37.2789L12.2659 37.2785L10.547 35.0137C10.547 35.0136 10.547 35.0136 10.5469 35.0136C10.5469 35.0136 10.5469 35.0136 10.5469 35.0135C10.4668 34.9078 10.4319 34.7746 10.45 34.6432C10.468 34.5118 10.5376 34.3929 10.6433 34.3127C10.749 34.2325 10.8823 34.1976 11.0137 34.2157C11.1452 34.2337 11.2641 34.3033 11.3443 34.409L11.3443 34.409L12.3663 35.756L12.7148 36.2154L13.1202 35.8053L19.3761 29.4775L12.6646 37.4748Z" fill="#96BC58" stroke="black"/>
<path d="M0.532549 40.399L0.532536 40.3991C0.470007 40.8545 0.497789 41.3177 0.614295 41.7623C0.730801 42.207 0.933749 42.6243 1.21155 42.9905C1.48935 43.3567 1.83656 43.6646 2.23337 43.8966C2.63015 44.1286 3.06875 44.2802 3.52412 44.3427C3.52413 44.3427 3.52415 44.3427 3.52416 44.3427L23.4676 47.0776L0.532549 40.399ZM0.532549 40.399L5.58854 3.52406C5.58854 3.52403 5.58855 3.52401 5.58855 3.52399C5.71478 2.6045 6.20105 1.7728 6.94042 1.21179C7.67979 0.650777 8.61173 0.406409 9.53126 0.532429C9.53127 0.532431 9.53128 0.532432 9.53129 0.532434L29.4762 3.26742L0.532549 40.399ZM23.9462 47.6101L23.9462 47.1101C23.7863 47.1101 23.6266 47.0992 23.4681 47.0777L29.4763 3.26743C30.3957 3.39366 31.2274 3.87993 31.7885 4.6193C32.3495 5.35868 32.5938 6.29063 32.4678 7.21017L27.4119 44.0844C27.2959 44.9219 26.8811 45.6893 26.2441 46.2453C25.6071 46.8013 24.7907 47.1084 23.9452 47.1101L23.9462 47.6101ZM23.9462 47.6101C23.7636 47.6101 23.5811 47.5977 23.4002 47.5731L23.9462 47.6101ZM23.6042 46.0864L23.6043 46.0864C24.261 46.1765 24.9266 46.002 25.4547 45.6014C25.9828 45.2008 26.3302 44.6069 26.4205 43.9502L26.4205 43.95L31.4765 7.07398L30.9812 7.00606L31.4766 7.07398C31.5666 6.41726 31.3921 5.75166 30.9915 5.22355C30.5909 4.69543 29.997 4.34803 29.3403 4.25773L29.3401 4.2577L9.39612 1.5227L9.39606 1.52269C9.07079 1.47812 8.73993 1.49806 8.42237 1.58136C8.1048 1.66466 7.80676 1.80969 7.54524 2.00817C7.28373 2.20666 7.06387 2.45471 6.89822 2.73816C6.73257 3.02162 6.62438 3.33493 6.57981 3.66019L1.52382 40.5311L2.01918 40.5991L1.52382 40.5312C1.43379 41.1879 1.60825 41.8535 2.00885 42.3816C2.40945 42.9097 3.00338 43.2571 3.66007 43.3474L3.66016 43.3474L23.6042 46.0864Z" fill="#373644" stroke="black"/>
</svg>
