<svg width="80" height="80" viewBox="0 0 80 80" fill="none" xmlns="http://www.w3.org/2000/svg">
<path d="M23.4975 48.6534C21.7786 48.6164 20.0721 48.3449 18.4321 47.8289C14.6979 46.6541 8.41103 44.0884 6.61097 39.7402C3.99946 33.4319 4.47301 27.0598 8.69305 21.4137C12.3464 16.5257 17.305 13.2823 22.8323 10.7851C27.2756 8.77771 31.8203 7.07755 36.5582 5.99433C43.4627 4.41576 50.3204 4.55291 56.8573 7.60084C61.3732 9.70644 65.0517 12.8839 67.9748 16.9533C71.8003 22.279 73.8992 28.2049 74.6686 34.697C74.9845 37.3633 74.8518 39.8922 73.7665 42.3195C73.3642 43.2195 72.5804 44.1205 71.6311 44.9658C68.2354 47.9892 63.7653 49.5209 59.2196 49.423L23.4975 48.6534Z" fill="#F5F5F5"/>
<path d="M61.8585 20.831C61.847 19.7495 60.9678 18.8762 59.8837 18.8762C59.6261 18.8762 59.3786 18.927 59.1516 19.0185C58.7923 17.7001 57.5891 16.7274 56.1554 16.7274C54.6167 16.7274 53.3389 17.8459 53.0949 19.31C52.7594 19.0389 52.3289 18.8762 51.8612 18.8762C50.777 18.8762 49.8978 19.7495 49.8863 20.831H61.8585ZM39.162 14.567C39.1505 13.4851 38.271 12.6115 37.1865 12.6115C36.9288 12.6115 36.6812 12.6624 36.4541 12.7539C36.0947 11.435 34.8911 10.4619 33.4569 10.4619C31.9176 10.4619 30.6394 11.5808 30.3953 13.0455C30.0596 12.7742 29.629 12.6115 29.1611 12.6115C28.0765 12.6115 27.197 13.4851 27.1855 14.567H39.162Z" fill="white"/>
<path d="M62.2004 39.6975C62.2004 51.7352 52.3975 61.4975 40.3004 61.4975C28.2032 61.4975 18.4004 51.7352 18.4004 39.6975C18.4004 27.6598 28.2032 17.8975 40.3004 17.8975C52.3975 17.8975 62.2004 27.6598 62.2004 39.6975Z" fill="#72CAF7" stroke="#2D2D2D"/>
<path d="M18.4004 39.6975C18.4004 36.8693 18.985 34.2305 19.9667 31.6778C22.7025 24.644 29.1539 19.3647 36.8755 18.1918L36.8827 18.1907L36.8898 18.1894C37.9571 17.9953 39.1269 17.8975 40.3004 17.8975C44.8982 17.8975 49.0987 19.2661 52.6152 21.7081L52.6152 21.7082L52.6198 21.7113C58.3902 25.6235 62.2004 32.1723 62.2004 39.6975C62.2004 51.7199 52.4257 61.4975 40.3004 61.4975C30.2297 61.4975 21.7254 54.7523 19.1833 45.4678C18.6929 43.6036 18.4004 41.6474 18.4004 39.6975Z" fill="#72CAF7" stroke="#2D2D2D"/>
<path d="M49 55.9977C45.7 57.6977 41.5 57.5977 38.4 55.7977C37 54.9977 35.7 53.7977 34 53.5977C32.9 53.4977 31.7 53.7977 30.7 53.3977C29.7 52.9977 29.2 51.9977 28.9 50.9977C28.7 49.9977 28.8 48.9977 28.8 47.8977C28.8 45.2977 28.4 42.7977 27.5 40.3977C27.1 39.2977 26.1 37.9977 25 38.3977C24.3 38.5977 23.9 39.4977 23.9 40.2977C23.9 41.0977 24 41.7977 23.9 42.5977C23.7 43.3977 23 44.0977 22.3 43.8977C22.1 45.2977 20.6 46.3977 19.2 46.2977C19.1 46.2977 19.1 46.3977 19 46.3977C18.3 44.2977 18 41.9977 18 39.6977C18 29.8977 24.4 21.5977 33.2 18.5977C33.1 18.6977 33 18.7977 32.9 18.7977C34.3 18.5977 35.3 20.0977 35.3 21.4977C35.3 22.8977 34.5 24.0977 33.9 25.2977C33.3 26.4977 32.8 27.8977 33.3 29.1977C33.6 29.9977 34.3 30.7977 34 31.5977C33.5 32.9977 31.1 32.1977 30 33.1977C29.1 33.9977 29.5 35.4977 30.1 36.4977C31.2 38.2977 32.8 39.6977 34.7 40.4977C35.9 41.0977 37.5 41.5977 37.8 42.8977C38 43.7977 37.5 44.6977 37.1 45.4977C36.7 46.2977 36.5 47.3977 37.1 48.0977C38.7 47.7977 40.4 47.4977 42 47.7977C43.6 48.0977 45.3 48.9977 45.9 50.4977C46.4 51.6977 46.2 52.9977 46.5 54.2977C46.7 55.4977 48 56.4977 49 55.9977ZM62.7 39.6977C62.7 43.2977 61.8 46.6977 60.3 49.6977C60.3 49.6977 60.3 49.6977 60.2 49.5977C59 50.2977 57.5 50.2977 56.3 49.6977C55.1 49.0977 54.2 47.8977 54 46.5977C53.9 45.8977 54 45.0977 53.8 44.4977C53.6 43.7977 52.8 43.1977 52.2 43.4977C52 43.5977 51.8 43.6977 51.6 43.7977C50.8 44.0977 50 43.1977 50 42.3977C50 41.5977 50.4 40.7977 50.5 39.9977C50.6 39.1977 50.3 38.0977 49.4 37.9977C48.3 37.7977 47.7 39.1977 46.8 39.7977C46.1 40.2977 45.1 40.1977 44.5 39.7977C43.8 39.2977 43.5 38.3977 43.8 37.5977C44.1 36.4977 45.4 35.6977 45.5 34.4977C45.5 32.8977 43.2 32.0977 42.8 30.5977C42.4 29.3977 43.4 28.0977 44.5 27.3977C45.6 26.6977 46.9 26.3977 47.9 25.6977C49.6 24.5977 50.4 22.5977 51.2 20.6977C51.2 20.5977 51.3 20.4977 51.4 20.3977C58.1 24.0977 62.7 31.3977 62.7 39.6977Z" fill="#5CE5CE" stroke="#2D2D2D" stroke-width="1.5" stroke-miterlimit="10" stroke-linecap="round" stroke-linejoin="round"/>
<path opacity="0.1" d="M18.4004 39.6975C18.4004 36.8693 18.985 34.2305 19.9667 31.6778C22.7025 24.644 29.1539 19.3647 36.8755 18.1918L36.8827 18.1907L36.8898 18.1894C37.9571 17.9953 39.1269 17.8975 40.3004 17.8975C44.8509 17.8975 49.0124 19.2382 52.5066 21.6332C53.7373 24.2339 54.4004 27.1187 54.4004 30.1975C54.4004 41.7183 45.0273 50.9975 33.5004 50.9975C27.9784 50.9975 22.8468 48.8851 19.1489 45.3356C18.6792 43.5112 18.4004 41.6014 18.4004 39.6975Z" fill="white" stroke="#2D2D2D"/>
<path opacity="0.1" d="M40.2004 26.1973C40.2004 32.1211 35.3242 36.9973 29.4004 36.9973C25.3716 36.9973 21.8031 34.7939 19.9535 31.5627C22.8054 24.604 29.1093 19.4541 36.6509 18.2269C38.8362 20.1342 40.2004 23.0257 40.2004 26.1973Z" fill="white" stroke="#2D2D2D"/>
<path d="M40.3004 61.9975C52.6716 61.9975 62.7004 52.0134 62.7004 39.6975C62.7004 27.3815 52.6716 17.3975 40.3004 17.3975C27.9292 17.3975 17.9004 27.3815 17.9004 39.6975C17.9004 52.0134 27.9292 61.9975 40.3004 61.9975Z" stroke="#2D2D2D" stroke-width="1.5" stroke-miterlimit="10" stroke-linecap="round" stroke-linejoin="round"/>
<path d="M9.49962 43.5973C8.39962 35.0973 10.8996 26.3973 16.5996 19.6973M10.0996 46.9973C9.99962 46.6973 9.89962 46.2973 9.89962 45.9973M12.6996 37.2973C12.6996 37.5973 12.5996 37.8973 12.5996 38.1973M15.7996 26.8973C14.4996 29.3973 13.5996 31.9973 13.0996 34.6973" stroke="#2D2D2D" stroke-width="1.5" stroke-miterlimit="10" stroke-linecap="round" stroke-linejoin="round"/>
<path d="M25.0005 12.4977C26.2005 14.0977 25.8005 16.3977 24.2005 17.5977C22.6005 18.7977 20.2005 18.3977 19.0005 16.7977C17.8005 15.1977 18.2005 12.8977 19.8005 11.6977C21.4005 10.4977 23.8005 10.8977 25.0005 12.4977Z" fill="white" stroke="#2D2D2D" stroke-width="1.5" stroke-miterlimit="10" stroke-linecap="round" stroke-linejoin="round"/>
<path d="M25.0005 12.4977C26.2005 14.0977 25.8005 16.3977 24.2005 17.5977C22.6005 18.7977 20.2005 18.3977 19.0005 16.7977C17.8005 15.1977 18.2005 12.8977 19.8005 11.6977C21.4005 10.4977 23.8005 10.8977 25.0005 12.4977Z" fill="white" stroke="#2D2D2D" stroke-width="1.5" stroke-miterlimit="10" stroke-linecap="round" stroke-linejoin="round"/>
<path d="M71.1001 35.7975C72.2001 44.2975 69.7001 52.9975 64.0001 59.6975M70.5001 32.3975C70.6001 32.6975 70.7001 33.0975 70.7001 33.3975M67.9001 42.0975C67.9001 41.7975 68.0001 41.4975 68.0001 41.1975M64.8001 52.4975C66.1001 49.9975 67.0001 47.3975 67.5001 44.6975M55.6001 66.8975C54.4001 65.2975 54.8001 62.9975 56.4001 61.7975C58.0001 60.5975 60.4001 60.9975 61.6001 62.5975C62.8001 64.1975 62.4001 66.4975 60.8001 67.6975C59.1001 68.8975 56.8001 68.4975 55.6001 66.8975Z" stroke="#2D2D2D" stroke-width="1.5" stroke-miterlimit="10" stroke-linecap="round" stroke-linejoin="round"/>
<path d="M61.8008 19.5977C64.5008 19.5977 66.7008 21.7977 66.7008 24.3977C66.7008 21.6977 68.9008 19.5977 71.6008 19.5977" fill="#F5B78E"/>
<path d="M61.8008 19.5977C64.5008 19.5977 66.7008 21.7977 66.7008 24.3977C66.7008 21.6977 68.9008 19.5977 71.6008 19.5977" stroke="#2D2D2D" stroke-width="1.5" stroke-miterlimit="10" stroke-linecap="round" stroke-linejoin="round"/>
<path d="M71.6008 19.5979C68.9008 19.5979 66.7008 17.3979 66.7008 14.7979C66.7008 17.4979 64.5008 19.5979 61.8008 19.5979" fill="#F5B78E"/>
<path d="M71.6008 19.5979C68.9008 19.5979 66.7008 17.3979 66.7008 14.7979C66.7008 17.4979 64.5008 19.5979 61.8008 19.5979" stroke="#2D2D2D" stroke-width="1.5" stroke-miterlimit="10" stroke-linecap="round" stroke-linejoin="round"/>
<path d="M9.1 59.798C11.8 59.798 14 61.998 14 64.598C14 61.898 16.2 59.798 18.9 59.798M18.8 59.798C16.1 59.798 13.9 57.598 13.9 54.998C13.9 57.698 11.7 59.798 9 59.798" fill="#F5B78E"/>
<path d="M9.1 59.798C11.8 59.798 14 61.998 14 64.598C14 61.898 16.2 59.798 18.9 59.798M18.8 59.798C16.1 59.798 13.9 57.598 13.9 54.998C13.9 57.698 11.7 59.798 9 59.798" stroke="#2D2D2D" stroke-width="1.5" stroke-miterlimit="10" stroke-linecap="round" stroke-linejoin="round"/>
</svg>
