<svg width="13" height="13" viewBox="0 0 13 13" fill="none" xmlns="http://www.w3.org/2000/svg">
<path d="M6.28695 1.26856C6.34608 1.21719 6.42177 1.1889 6.50009 1.1889C6.57842 1.1889 6.65411 1.21719 6.71324 1.26856L7.76841 2.18506C7.80127 2.21363 7.83955 2.23531 7.88095 2.2488C7.92236 2.26229 7.96606 2.26733 8.00945 2.2636L9.40261 2.14227C9.48061 2.13557 9.55841 2.15725 9.6217 2.20333C9.68499 2.2494 9.72953 2.31677 9.74712 2.39306L10.0624 3.75481C10.0721 3.79736 10.0903 3.83752 10.1159 3.87289C10.1415 3.90825 10.1739 3.9381 10.2113 3.96064L11.4095 4.68106C11.4765 4.72143 11.5268 4.78464 11.5509 4.85907C11.5751 4.9335 11.5716 5.01416 11.5411 5.08623L10.9951 6.37323C10.9781 6.41333 10.9694 6.45643 10.9694 6.49998C10.9694 6.54352 10.9781 6.58663 10.9951 6.62673L11.5411 7.91373C11.5718 7.98586 11.5754 8.06664 11.5512 8.14119C11.527 8.21575 11.4767 8.27905 11.4095 8.31943L10.2113 9.03985C10.174 9.06234 10.1416 9.0921 10.116 9.12737C10.0904 9.16263 10.0722 9.20269 10.0624 9.24514L9.74712 10.6069C9.72953 10.6832 9.68499 10.7506 9.6217 10.7966C9.55841 10.8427 9.48061 10.8644 9.40261 10.8577L8.00945 10.7364C7.96609 10.7326 7.92242 10.7375 7.88101 10.7509C7.83961 10.7643 7.80132 10.7859 7.76841 10.8144L6.7127 11.7314C6.65357 11.7828 6.57788 11.811 6.49955 11.811C6.42123 11.811 6.34554 11.7828 6.28641 11.7314L5.23124 10.8144C5.19833 10.7859 5.16004 10.7643 5.11863 10.7509C5.07723 10.7375 5.03355 10.7326 4.9902 10.7364L3.59703 10.8577C3.51903 10.8644 3.44124 10.8427 3.37794 10.7966C3.31465 10.7506 3.27012 10.6832 3.25253 10.6069L2.93728 9.24514C2.92755 9.20259 2.90934 9.16243 2.88375 9.12707C2.85816 9.0917 2.8257 9.06186 2.78832 9.03931L1.59016 8.31889C1.52311 8.27852 1.47288 8.21532 1.4487 8.14088C1.42452 8.06645 1.42801 7.98579 1.45853 7.91373L2.00453 6.62673C2.02152 6.58663 2.03027 6.54352 2.03027 6.49998C2.03027 6.45643 2.02152 6.41333 2.00453 6.37323L1.45853 5.08623C1.42786 5.0141 1.42429 4.93331 1.44848 4.85876C1.47267 4.78421 1.52298 4.7209 1.59016 4.68052L2.78832 3.9601C2.82565 3.93762 2.85807 3.90785 2.88366 3.87259C2.90925 3.83732 2.92748 3.79727 2.93728 3.75481L3.25253 2.39306C3.27012 2.31677 3.31465 2.2494 3.37794 2.20333C3.44124 2.15725 3.51903 2.13557 3.59703 2.14227L4.9902 2.2636C5.03359 2.26733 5.07729 2.26229 5.11869 2.2488C5.1601 2.23531 5.19837 2.21363 5.23124 2.18506L6.28695 1.26856Z" stroke="url(#paint0_linear_9150_2527)" stroke-width="0.8125"/>
<path d="M4.875 7.04163L5.95833 8.12496L8.66667 5.41663" stroke="url(#paint1_linear_9150_2527)" stroke-width="0.8125" stroke-linecap="round" stroke-linejoin="round"/>
<defs>
<linearGradient id="paint0_linear_9150_2527" x1="3.56084" y1="4.05688" x2="11.9122" y2="11.4196" gradientUnits="userSpaceOnUse">
<stop stop-color="#19438C"/>
<stop offset="1" stop-color="#D01E2F"/>
</linearGradient>
<linearGradient id="paint1_linear_9150_2527" x1="5.67125" y1="6.14788" x2="7.74828" y2="8.83487" gradientUnits="userSpaceOnUse">
<stop stop-color="#19438C"/>
<stop offset="1" stop-color="#D01E2F"/>
</linearGradient>
</defs>
</svg>
