<svg width="80" height="80" viewBox="0 0 80 80" fill="none" xmlns="http://www.w3.org/2000/svg">
<path d="M23.4975 48.6534C21.7786 48.6164 20.0721 48.3449 18.4321 47.8289C14.6979 46.6541 8.41103 44.0884 6.61097 39.7402C3.99946 33.4319 4.47301 27.0598 8.69305 21.4137C12.3464 16.5257 17.305 13.2823 22.8323 10.7851C27.2756 8.77771 31.8203 7.07755 36.5582 5.99433C43.4627 4.41576 50.3204 4.55291 56.8573 7.60084C61.3732 9.70644 65.0517 12.8839 67.9748 16.9533C71.8003 22.279 73.8992 28.2049 74.6686 34.697C74.9845 37.3633 74.8518 39.8922 73.7665 42.3195C73.3642 43.2195 72.5804 44.1205 71.6311 44.9658C68.2354 47.9892 63.7653 49.5209 59.2196 49.423L23.4975 48.6534Z" fill="#F5F5F5"/>
<path d="M61.8585 20.831C61.847 19.7495 60.9678 18.8762 59.8837 18.8762C59.6261 18.8762 59.3786 18.927 59.1516 19.0185C58.7923 17.7001 57.5891 16.7274 56.1554 16.7274C54.6167 16.7274 53.3389 17.8459 53.0949 19.31C52.7594 19.0389 52.3289 18.8762 51.8612 18.8762C50.777 18.8762 49.8978 19.7495 49.8863 20.831H61.8585ZM39.162 14.567C39.1505 13.4851 38.271 12.6115 37.1865 12.6115C36.9288 12.6115 36.6812 12.6624 36.4541 12.7539C36.0947 11.435 34.8911 10.4619 33.4569 10.4619C31.9176 10.4619 30.6394 11.5808 30.3953 13.0455C30.0596 12.7742 29.629 12.6115 29.1611 12.6115C28.0765 12.6115 27.197 13.4851 27.1855 14.567H39.162Z" fill="white"/>
<path d="M63.6788 24.8926H26.1789C24.2064 24.8926 22.6074 26.4916 22.6074 28.464V53.464C22.6074 55.4365 24.2064 57.0354 26.1789 57.0354H63.6788C65.6513 57.0354 67.2503 55.4365 67.2503 53.464V28.464C67.2503 26.4916 65.6513 24.8926 63.6788 24.8926Z" fill="#C1D1F7"/>
<path d="M59.2146 44.5361V57.0361H26.1789C25.2316 57.0361 24.3232 56.6599 23.6535 55.9901C22.9837 55.3203 22.6074 54.4119 22.6074 53.4647V38.2861H52.9646C54.6216 38.2879 56.2103 38.947 57.382 40.1187C58.5537 41.2904 59.2128 42.8791 59.2146 44.5361Z" fill="#ADBEEE"/>
<path d="M63.6788 54.3576H26.1789C25.2316 54.3576 24.3232 53.9813 23.6535 53.3115C22.9837 52.6417 22.6074 51.7333 22.6074 50.7861V53.4647C22.6074 54.4119 22.9837 55.3203 23.6535 55.9901C24.3232 56.6599 25.2316 57.0361 26.1789 57.0361H63.6788C64.6261 57.0361 65.5345 56.6599 66.2042 55.9901C66.874 55.3203 67.2503 54.4119 67.2503 53.4647V50.7861C67.2503 51.7333 66.874 52.6417 66.2042 53.3115C65.5345 53.9813 64.6261 54.3576 63.6788 54.3576Z" fill="#ADBEEE"/>
<path d="M63.6791 57.9286H60.1077C59.8709 57.9286 59.6438 57.8345 59.4764 57.6671C59.3089 57.4996 59.2148 57.2725 59.2148 57.0357C59.2148 56.7989 59.3089 56.5718 59.4764 56.4044C59.6438 56.2369 59.8709 56.1429 60.1077 56.1429H63.6791C64.3895 56.1429 65.0708 55.8606 65.5732 55.3583C66.0755 54.856 66.3577 54.1747 66.3577 53.4643V28.4643C66.3577 27.7539 66.0755 27.0726 65.5732 26.5702C65.0708 26.0679 64.3895 25.7857 63.6791 25.7857H26.1791C25.4687 25.7857 24.7874 26.0679 24.2851 26.5702C23.7828 27.0726 23.5006 27.7539 23.5006 28.4643V53.4643C23.5006 54.1747 23.7828 54.856 24.2851 55.3583C24.7874 55.8606 25.4687 56.1429 26.1791 56.1429H56.5363C56.7731 56.1429 57.0002 56.2369 57.1676 56.4044C57.3351 56.5718 57.4291 56.7989 57.4291 57.0357C57.4291 57.2725 57.3351 57.4996 57.1676 57.6671C57.0002 57.8345 56.7731 57.9286 56.5363 57.9286H26.1791C24.9951 57.9286 23.8596 57.4582 23.0224 56.621C22.1852 55.7838 21.7148 54.6483 21.7148 53.4643V28.4643C21.7148 27.2803 22.1852 26.1448 23.0224 25.3076C23.8596 24.4703 24.9951 24 26.1791 24H63.6791C64.8631 24 65.9986 24.4703 66.8359 25.3076C67.6731 26.1448 68.1434 27.2803 68.1434 28.4643V53.4643C68.1434 54.6483 67.6731 55.7838 66.8359 56.621C65.9986 57.4582 64.8631 57.9286 63.6791 57.9286Z" fill="black"/>
<path d="M52.964 40.9639H15.464C13.4916 40.9639 11.8926 42.5629 11.8926 44.5353V69.5353C11.8926 71.5077 13.4916 73.1067 15.464 73.1067H52.964C54.9365 73.1067 56.5354 71.5077 56.5354 69.5353V44.5353C56.5354 42.5629 54.9365 40.9639 52.964 40.9639Z" fill="#EAF2FF"/>
<path d="M52.964 70.4289H15.464C14.5168 70.4289 13.6084 70.0526 12.9386 69.3828C12.2689 68.713 11.8926 67.8046 11.8926 66.8574V69.536C11.8926 70.4832 12.2689 71.3916 12.9386 72.0614C13.6084 72.7311 14.5168 73.1074 15.464 73.1074H52.964C53.9112 73.1074 54.8196 72.7311 55.4894 72.0614C56.1592 71.3916 56.5354 70.4832 56.5354 69.536V66.8574C56.5354 67.8046 56.1592 68.713 55.4894 69.3828C54.8196 70.0526 53.9112 70.4289 52.964 70.4289Z" fill="#C1D1F7"/>
<path d="M52.9643 73.9999H15.4643C14.2803 73.9999 13.1448 73.5295 12.3076 72.6923C11.4703 71.8551 11 70.7196 11 69.5356V44.5356C11 43.3516 11.4703 42.2161 12.3076 41.3788C13.1448 40.5416 14.2803 40.0713 15.4643 40.0713H19.0357C19.2725 40.0713 19.4996 40.1654 19.6671 40.3328C19.8345 40.5002 19.9286 40.7273 19.9286 40.9641C19.9286 41.2009 19.8345 41.428 19.6671 41.5955C19.4996 41.7629 19.2725 41.857 19.0357 41.857H15.4643C14.7539 41.857 14.0726 42.1392 13.5702 42.6415C13.0679 43.1439 12.7857 43.8252 12.7857 44.5356V69.5356C12.7857 70.246 13.0679 70.9273 13.5702 71.4296C14.0726 71.9319 14.7539 72.2141 15.4643 72.2141H52.9643C53.6747 72.2141 54.356 71.9319 54.8583 71.4296C55.3606 70.9273 55.6429 70.246 55.6429 69.5356V44.5356C55.6429 43.8252 55.3606 43.1439 54.8583 42.6415C54.356 42.1392 53.6747 41.857 52.9643 41.857H22.6071C22.3703 41.857 22.1432 41.7629 21.9758 41.5955C21.8084 41.428 21.7143 41.2009 21.7143 40.9641C21.7143 40.7273 21.8084 40.5002 21.9758 40.3328C22.1432 40.1654 22.3703 40.0713 22.6071 40.0713H52.9643C54.1483 40.0713 55.2838 40.5416 56.121 41.3788C56.9582 42.2161 57.4286 43.3516 57.4286 44.5356V69.5356C57.4286 70.7196 56.9582 71.8551 56.121 72.6923C55.2838 73.5295 54.1483 73.9999 52.9643 73.9999Z" fill="black"/>
<path d="M16.3574 45.4287H28.8574V54.3573H16.3574V45.4287Z" fill="#E9A648"/>
<path d="M16.3574 51.6787H28.8574V54.3573H16.3574V51.6787Z" fill="#D08840"/>
<path d="M28.8577 55.2504H16.3577C16.1209 55.2504 15.8938 55.1564 15.7264 54.9889C15.5589 54.8215 15.4648 54.5944 15.4648 54.3576V45.429C15.4648 45.1922 15.5589 44.9651 15.7264 44.7976C15.8938 44.6302 16.1209 44.5361 16.3577 44.5361H28.8577C29.0945 44.5361 29.3216 44.6302 29.489 44.7976C29.6565 44.9651 29.7506 45.1922 29.7506 45.429V54.3576C29.7506 54.5944 29.6565 54.8215 29.489 54.9889C29.3216 55.1564 29.0945 55.2504 28.8577 55.2504ZM17.2506 53.4647H27.9648V46.3218H17.2506V53.4647ZM19.9291 62.3933H16.3577C16.1209 62.3933 15.8938 62.2992 15.7264 62.1318C15.5589 61.9643 15.4648 61.7372 15.4648 61.5004C15.4648 61.2636 15.5589 61.0365 15.7264 60.8691C15.8938 60.7016 16.1209 60.6076 16.3577 60.6076H19.9291C20.1659 60.6076 20.393 60.7016 20.5605 60.8691C20.7279 61.0365 20.822 61.2636 20.822 61.5004C20.822 61.7372 20.7279 61.9643 20.5605 62.1318C20.393 62.2992 20.1659 62.3933 19.9291 62.3933ZM28.8577 62.3933H25.2863C25.0495 62.3933 24.8224 62.2992 24.6549 62.1318C24.4875 61.9643 24.3934 61.7372 24.3934 61.5004C24.3934 61.2636 24.4875 61.0365 24.6549 60.8691C24.8224 60.7016 25.0495 60.6076 25.2863 60.6076H28.8577C29.0945 60.6076 29.3216 60.7016 29.489 60.8691C29.6565 61.0365 29.7506 61.2636 29.7506 61.5004C29.7506 61.7372 29.6565 61.9643 29.489 62.1318C29.3216 62.2992 29.0945 62.3933 28.8577 62.3933ZM37.7863 62.3933H34.2148C33.978 62.3933 33.7509 62.2992 33.5835 62.1318C33.4161 61.9643 33.322 61.7372 33.322 61.5004C33.322 61.2636 33.4161 61.0365 33.5835 60.8691C33.7509 60.7016 33.978 60.6076 34.2148 60.6076H37.7863C38.0231 60.6076 38.2502 60.7016 38.4176 60.8691C38.5851 61.0365 38.6791 61.2636 38.6791 61.5004C38.6791 61.7372 38.5851 61.9643 38.4176 62.1318C38.2502 62.2992 38.0231 62.3933 37.7863 62.3933ZM46.7148 62.3933H43.1434C42.9066 62.3933 42.6795 62.2992 42.5121 62.1318C42.3446 61.9643 42.2506 61.7372 42.2506 61.5004C42.2506 61.2636 42.3446 61.0365 42.5121 60.8691C42.6795 60.7016 42.9066 60.6076 43.1434 60.6076H46.7148C46.9516 60.6076 47.1787 60.7016 47.3462 60.8691C47.5136 61.0365 47.6077 61.2636 47.6077 61.5004C47.6077 61.7372 47.5136 61.9643 47.3462 62.1318C47.1787 62.2992 46.9516 62.3933 46.7148 62.3933ZM28.8577 69.5361H16.3577C16.1209 69.5361 15.8938 69.4421 15.7264 69.2746C15.5589 69.1072 15.4648 68.8801 15.4648 68.6433C15.4648 68.4065 15.5589 68.1794 15.7264 68.0119C15.8938 67.8445 16.1209 67.7504 16.3577 67.7504H28.8577C29.0945 67.7504 29.3216 67.8445 29.489 68.0119C29.6565 68.1794 29.7506 68.4065 29.7506 68.6433C29.7506 68.8801 29.6565 69.1072 29.489 69.2746C29.3216 69.4421 29.0945 69.5361 28.8577 69.5361ZM49.3934 55.2504C49.1566 55.2504 48.9295 55.1564 48.7621 54.9889C48.5946 54.8215 48.5006 54.5944 48.5006 54.3576C48.5006 53.4104 48.8768 52.502 49.5466 51.8322C50.2164 51.1624 51.1248 50.7861 52.072 50.7861C52.3088 50.7861 52.5359 50.8802 52.7033 51.0476C52.8708 51.2151 52.9648 51.4422 52.9648 51.679C52.9648 51.9158 52.8708 52.1429 52.7033 52.3103C52.5359 52.4778 52.3088 52.5718 52.072 52.5718C51.5984 52.5718 51.1442 52.76 50.8093 53.0949C50.4744 53.4298 50.2863 53.884 50.2863 54.3576C50.2863 54.5944 50.1922 54.8215 50.0248 54.9889C49.8573 55.1564 49.6302 55.2504 49.3934 55.2504Z" fill="black"/>
<path d="M45.8206 55.2496C45.5838 55.2496 45.3567 55.1555 45.1892 54.9881C45.0218 54.8206 44.9277 54.5935 44.9277 54.3567C44.9298 52.463 45.683 50.6473 47.0221 49.3082C48.3612 47.9691 50.1768 47.2159 52.0706 47.2139C52.3074 47.2139 52.5345 47.3079 52.7019 47.4754C52.8694 47.6428 52.9634 47.8699 52.9634 48.1067C52.9634 48.3435 52.8694 48.5706 52.7019 48.7381C52.5345 48.9055 52.3074 48.9996 52.0706 48.9996C50.6502 49.0011 49.2885 49.5659 48.2842 50.5703C47.2798 51.5746 46.7149 52.9364 46.7134 54.3567C46.7134 54.5935 46.6194 54.8206 46.4519 54.9881C46.2845 55.1555 46.0574 55.2496 45.8206 55.2496Z" fill="black"/>
<path d="M22.6074 29.3574H67.2503V36.5003H22.6074V29.3574Z" fill="#5F79A5"/>
<path d="M67.2506 37.3924H22.6077C22.3709 37.3924 22.1438 37.2984 21.9764 37.1309C21.8089 36.9635 21.7148 36.7364 21.7148 36.4996V29.3567C21.7148 29.1199 21.8089 28.8928 21.9764 28.7254C22.1438 28.5579 22.3709 28.4639 22.6077 28.4639H67.2506C67.4874 28.4639 67.7145 28.5579 67.8819 28.7254C68.0493 28.8928 68.1434 29.1199 68.1434 29.3567V36.4996C68.1434 36.7364 68.0493 36.9635 67.8819 37.1309C67.7145 37.2984 67.4874 37.3924 67.2506 37.3924ZM23.5006 35.6067H66.3577V30.2496H23.5006V35.6067Z" fill="black"/>
</svg>
