<svg width="72" height="72" viewBox="0 0 72 72" fill="none" xmlns="http://www.w3.org/2000/svg">
<path d="M19.5893 44.38C17.8704 44.343 16.1639 44.0714 14.5239 43.5554C10.7897 42.3806 4.50282 39.8149 2.70277 35.4667C0.0912552 29.1585 0.564807 22.7864 4.78484 17.1402C8.43824 12.2522 13.3968 9.00886 18.9241 6.51169C23.3674 4.50427 27.9121 2.80411 32.65 1.7209C39.5545 0.142319 46.4122 0.279472 52.9491 3.3274C57.465 5.433 61.1435 8.61048 64.0666 12.6799C67.8921 18.0056 69.991 23.9314 70.7604 30.4235C71.0763 33.0899 70.9436 35.6188 69.8583 38.0461C69.456 38.9461 68.6722 39.8471 67.7229 40.6923C64.3271 43.7158 59.8571 45.2475 55.3114 45.1496L19.5893 44.38Z" fill="#F5F5F5"/>
<path d="M57.9503 16.5575C57.9388 15.4761 57.0596 14.6028 55.9755 14.6028C55.7179 14.6028 55.4704 14.6536 55.2434 14.7451C54.8841 13.4267 53.6809 12.4539 52.2472 12.4539C50.7085 12.4539 49.4307 13.5724 49.1867 15.0366C48.8512 14.7654 48.4207 14.6028 47.953 14.6028C46.8688 14.6028 45.9896 15.4761 45.9781 16.5575H57.9503ZM35.2538 10.2935C35.2423 9.21168 34.3628 8.33806 33.2783 8.33806C33.0206 8.33806 32.773 8.38893 32.5459 8.48046C32.1865 7.16157 30.9829 6.18848 29.5487 6.18848C28.0094 6.18848 26.7312 7.30736 26.4871 8.77206C26.1514 8.5008 25.7208 8.33806 25.2529 8.33806C24.1683 8.33806 23.2888 9.21168 23.2773 10.2935H35.2538Z" fill="white"/>
<path d="M48.4725 64.7477L41.0783 63.5354L38.431 70.5448L27.5547 51.7063L37.5961 45.9092L48.4725 64.7477Z" fill="#F15C4F"/>
<path d="M3.72656 64.7477L11.1207 63.5354L13.768 70.5448L24.6444 51.7063L14.6029 45.9092L3.72656 64.7477Z" fill="#F15C4F"/>
<path d="M49.6263 37.1303C50.032 37.8796 49.7824 38.8163 49.033 39.2535L44.9627 41.5971C44.2934 41.9824 43.8808 42.696 43.8808 43.4683V48.1838C43.8808 49.0461 43.1818 49.7451 42.3196 49.7451H37.6041C36.8317 49.7451 36.1182 50.1576 35.7328 50.8269L33.3893 54.8972C32.9521 55.6466 32.0154 55.8965 31.266 55.4905L27.1965 53.1227C26.527 52.7332 25.7001 52.7321 25.0296 53.1199L20.9306 55.4905C20.1811 55.8965 19.2443 55.6466 18.8072 54.8972L16.4638 50.827C16.0785 50.1576 15.3649 49.7451 14.5925 49.7451H9.87688C9.01463 49.7451 8.31564 49.0461 8.31564 48.1838V43.4683C8.31564 42.6959 7.90312 41.9824 7.23381 41.597L3.16364 39.2535C2.41409 38.8163 2.16442 37.8796 2.57036 37.1303L4.94085 33.031C5.32859 32.3605 5.32749 31.5337 4.93799 30.8643L2.57036 26.7948C2.16442 26.0455 2.41409 25.1086 3.16364 24.6716L7.23381 22.328C7.90312 21.9427 8.31564 21.2292 8.31564 20.4568V15.7411C8.31564 14.8788 9.01463 14.1799 9.87688 14.1799H15.0373C15.5345 14.1799 15.9938 13.9143 16.2419 13.4834L18.8072 9.02786C19.2443 8.27849 20.1811 8.02864 20.9306 8.43458L25.0296 10.8052C25.7001 11.193 26.527 11.1919 27.1965 10.8023L31.266 8.43458C32.0154 8.02864 32.9521 8.27849 33.3893 9.02786L35.7328 13.098C36.1182 13.7673 36.8317 14.1799 37.604 14.1799H42.3196C43.1818 14.1799 43.8808 14.8788 43.8808 15.7411V20.4568C43.8808 21.2291 44.2934 21.9427 44.9627 22.328L49.033 24.6716C49.7824 25.1086 50.032 26.0455 49.6263 26.7948L47.2585 30.8642C46.869 31.5337 46.8679 32.3606 47.2557 33.0311L49.6263 37.1303Z" fill="#FFD8A0"/>
<path d="M49.6251 37.1301C50.0324 37.8792 49.7851 38.8173 49.036 39.2537L44.9633 41.5955C44.2942 41.981 43.8796 42.6937 43.8796 43.4646V48.1846C43.8796 49.0428 43.1815 49.7483 42.3233 49.7483H37.6032C36.8323 49.7483 36.1196 50.1555 35.7342 50.8246L33.3924 54.8973C32.956 55.6464 32.0178 55.8937 31.2687 55.4937L27.196 53.1228C26.5269 52.7301 25.6978 52.7301 25.0287 53.1228L20.9342 55.4937C20.1851 55.8937 19.2469 55.6464 18.8105 54.8973L16.8105 51.4283C16.8251 51.421 16.8323 51.4137 16.8469 51.4064L20.9487 49.0355C21.6178 48.6501 22.4396 48.6501 23.116 49.0355L27.1815 51.4064C27.9305 51.8137 28.8687 51.5592 29.3051 50.8101L31.6469 46.7446C32.0324 46.0756 32.7451 45.661 33.5233 45.661H38.236C39.1015 45.661 39.7996 44.9628 39.7996 44.0973V39.3846C39.7996 38.6137 40.2069 37.901 40.876 37.5155L44.9487 35.1665C45.6978 34.7301 45.9451 33.7919 45.5451 33.0428L43.1742 28.9482C42.7815 28.2792 42.7887 27.4501 43.1742 26.781L45.5451 22.7083C45.5524 22.6937 45.5596 22.6864 45.5596 22.6719L49.036 24.6719C49.7851 25.1083 50.0324 26.0464 49.6251 26.7955L47.2615 30.861C46.8687 31.5301 46.8687 32.3592 47.2542 33.0283L49.6251 37.1301Z" fill="#FFC777"/>
<path d="M26.0989 46.7125C34.2458 46.7125 40.8502 40.1081 40.8502 31.9612C40.8502 23.8143 34.2458 17.21 26.0989 17.21C17.952 17.21 11.3477 23.8143 11.3477 31.9612C11.3477 40.1081 17.952 46.7125 26.0989 46.7125Z" fill="white"/>
<path d="M30.9779 34.3087C30.8761 34.4033 30.8324 34.5342 30.8543 34.6724L31.8143 40.1415C31.8797 40.4833 31.5233 40.7378 31.2179 40.5778L26.3088 37.9887C26.1852 37.9306 26.047 37.9306 25.9233 37.9887L20.9779 40.5851C20.6724 40.7451 20.3234 40.4833 20.3815 40.1487L21.3415 34.6724C21.3634 34.5342 21.3197 34.4033 21.2252 34.3087L17.247 30.4324C16.9997 30.1924 17.1306 29.7778 17.4724 29.7269L22.9488 28.9269C23.0797 28.9051 23.1961 28.8251 23.2543 28.7015L25.7415 23.6978C25.8943 23.3924 26.3306 23.3924 26.4833 23.6978L28.9415 28.7015C28.9997 28.8251 29.1161 28.9051 29.2543 28.9269L34.7306 29.7269C35.0652 29.7778 35.1961 30.1924 34.9561 30.4324L30.9779 34.3087Z" fill="#7BBE5E"/>
<path d="M68.6673 53.3486V68.4582C68.6673 69.6061 67.7357 70.5377 66.5879 70.5377H43.435C42.2871 70.5377 41.3555 69.6061 41.3555 68.4582V53.3486H68.6673Z" fill="#5AA7F5"/>
<path d="M68.6666 53.3467V68.4556C68.6666 69.6095 67.7367 70.5393 66.5897 70.5393H43.4308C42.2905 70.5393 41.3674 69.623 41.3538 68.4828H64.5331C65.6801 68.4828 66.61 67.5529 66.61 66.4058V53.3467H68.6666ZM70.5332 49.1927V52.3014C70.5332 52.8784 70.0648 53.3467 69.4879 53.3467H40.5257C39.9488 53.3467 39.4805 52.8784 39.4805 52.3014V49.1927C39.4805 48.6158 39.9488 48.1475 40.5257 48.1475H69.4879C70.0648 48.1475 70.5332 48.6158 70.5332 49.1927Z" fill="#0097EC"/>
<path d="M57.8545 48.1484H52.168V53.3484H57.8545V48.1484Z" fill="white"/>
<path d="M57.1754 53.3467H52.8438V70.5387H57.1754V53.3467Z" fill="white"/>
<path d="M50.8127 38.7715H50.4634C47.968 38.7715 45.9551 40.7968 45.9551 43.2839V43.6416C45.9551 46.1287 47.968 48.1499 50.4634 48.1499H55.3211V43.2839C55.3211 40.7968 53.2998 38.7715 50.8127 38.7715ZM52.8257 45.6545H50.4634C49.3529 45.6545 48.4505 44.752 48.4505 43.6416V43.2839C48.4505 42.1735 49.3529 41.2669 50.4634 41.2669H50.8127C51.9231 41.2669 52.8257 42.1735 52.8257 43.2839V45.6545ZM60.1787 38.7715H59.8293C57.3423 38.7715 55.3211 40.7968 55.3211 43.2839V48.1499H60.1787C62.6741 48.1499 64.687 46.1287 64.687 43.6416V43.2839C64.687 40.7968 62.6741 38.7715 60.1787 38.7715ZM62.1916 43.6416C62.1916 44.752 61.2891 45.6545 60.1787 45.6545H57.8165V43.2839C57.8165 42.1735 58.7189 41.2669 59.8293 41.2669H60.1787C61.2891 41.2669 62.1916 42.1735 62.1916 43.2839V43.6416Z" fill="#FFD8A0"/>
<path d="M66.0983 57.5753L63.5208 55.4961L60.9434 57.5753V48.1484H66.0983V57.5753Z" fill="#7BBE5E"/>
<path d="M71.6349 70.546C71.6349 70.146 71.3077 69.8187 70.9077 69.8187H69.0459C69.2713 69.4115 69.3949 68.946 69.3949 68.4587V54.0733H69.4895C70.464 54.0733 71.264 53.2805 71.264 52.2987V49.1932C71.264 48.2187 70.464 47.4187 69.4895 47.4187H63.8022C64.7986 46.466 65.4167 45.1278 65.4167 43.6441V43.2805C65.4167 40.3933 63.0676 38.0442 60.1804 38.0442H59.8313C57.9113 38.0442 56.2313 39.0842 55.3222 40.6333C54.4131 39.0842 52.7331 38.0442 50.8131 38.0442H50.5368C50.5731 37.6224 50.4858 37.186 50.2677 36.786C50.2604 36.7787 50.2604 36.7715 50.2531 36.7642L47.8822 32.6696C47.6277 32.226 47.6277 31.6733 47.8895 31.2296L50.2677 27.1423C50.864 26.0369 50.4858 24.6769 49.3949 24.0442L45.3295 21.6951C44.8858 21.4405 44.6095 20.9678 44.6095 20.4587V15.7387C44.6095 14.4805 43.584 13.4551 42.3186 13.4551H37.6058C37.0968 13.4551 36.6167 13.1787 36.3622 12.7351L34.0204 8.66235C33.3876 7.57872 32.0277 7.19325 30.9004 7.80418L26.8349 10.1751C26.384 10.4296 25.8386 10.4296 25.3949 10.1751L21.2786 7.7969C20.1731 7.19325 18.8131 7.57872 18.1804 8.66235L15.6131 13.1205C15.4968 13.3242 15.2713 13.4551 15.0386 13.4551H9.87491C8.61674 13.4551 7.59131 14.4805 7.59131 15.7387V20.4587C7.59131 20.9678 7.31494 21.4405 6.87127 21.6951L2.79856 24.0442C1.71493 24.6769 1.32946 26.0369 1.94039 27.1569L4.3113 31.2296C4.56583 31.6733 4.56583 32.226 4.3113 32.6696L1.93311 36.786C1.32946 37.8914 1.71493 39.2514 2.79856 39.8842L6.87127 42.226C7.31494 42.4805 7.59131 42.9605 7.59131 43.4696V48.1824C7.59131 49.4478 8.61674 50.4733 9.87491 50.4733H11.1258L3.09677 64.386C2.9513 64.626 2.96582 64.9314 3.12584 65.1569C3.28582 65.3896 3.56219 65.5132 3.84584 65.4623L10.6531 64.3496L12.7186 69.8187H7.63494C7.23491 69.8187 6.90767 70.146 6.90767 70.546C6.90767 70.946 7.23491 71.2733 7.63494 71.2733H13.7004C13.7077 71.2733 13.7077 71.2733 13.7077 71.2733C24.647 71.2733 58.4619 71.2733 70.9077 71.2733C71.3077 71.2733 71.6349 70.946 71.6349 70.546ZM66.8276 48.8732H69.4895C69.664 48.8732 69.8095 49.0187 69.8095 49.1932V52.2987C69.8095 52.4733 69.664 52.6187 69.4895 52.6187H66.8276V48.8732ZM65.3731 48.8732V56.0514L63.9767 54.9314C63.7374 54.732 63.3475 54.7047 63.0604 54.9314L61.6713 56.0514V48.8732H65.3731ZM56.0495 43.2805C56.0495 41.1932 57.744 39.4987 59.8313 39.4987H60.1804C62.2604 39.4987 63.9622 41.1932 63.9622 43.2805V43.6441C63.9622 45.6805 62.3331 47.3533 60.3113 47.4187H56.0495V43.2805ZM60.2168 48.8805V52.6187H58.5804V48.8805H60.2168ZM50.464 39.4987H50.8131C52.9004 39.4987 54.5949 41.1932 54.5949 43.2805V47.4187H50.3331C48.304 47.3533 46.6822 45.6805 46.6822 43.6441V43.2805C46.6822 41.4016 48.0505 39.8493 49.8313 39.5569C50.0349 39.5205 50.2458 39.4987 50.464 39.4987ZM46.8422 47.4187H44.6095V43.4696C44.6095 42.9605 44.8858 42.4805 45.3295 42.226H45.3367C45.264 42.5678 45.2277 42.9169 45.2277 43.2805V43.6441C45.2277 45.1278 45.8458 46.466 46.8422 47.4187ZM50.3331 48.8732C50.3767 48.8805 50.4204 48.8805 50.464 48.8805H51.4386V52.6187H40.5295C40.3477 52.6187 40.2095 52.4733 40.2095 52.2987V49.1932C40.2095 49.1423 40.224 49.0915 40.2458 49.0478C40.2531 49.0333 40.2531 49.026 40.2677 49.0187C40.3186 48.9314 40.4131 48.8732 40.5295 48.8732H50.3331ZM9.87491 49.0187C9.41673 49.0187 9.04585 48.6405 9.04585 48.1824V43.4696C9.04585 42.4369 8.49312 41.4769 7.59854 40.9678L3.53311 38.626C3.12584 38.3933 2.98766 37.8842 3.19855 37.4915L5.56947 33.3969C6.08585 32.5024 6.08585 31.3896 5.56947 30.4951L3.21311 26.4515C2.98766 26.0369 3.12584 25.5351 3.52583 25.3024L7.59854 22.9605C8.49312 22.4442 9.04585 21.4842 9.04585 20.4587V15.7387C9.04585 15.2805 9.41673 14.9096 9.87491 14.9096H15.0386C15.7949 14.9096 16.4931 14.5024 16.8713 13.8478L19.4386 9.39691C19.6713 8.99691 20.1731 8.85145 20.5658 9.06234L24.6677 11.4333C25.5622 11.9496 26.6677 11.9496 27.5622 11.4333L31.6131 9.0769C32.0204 8.85145 32.5295 8.98963 32.7622 9.38963L35.104 13.4623C35.6204 14.3496 36.5731 14.9096 37.6058 14.9096H42.3186C42.7768 14.9096 43.1549 15.2805 43.1549 15.7387V20.4587C43.1549 21.4842 43.7076 22.4442 44.6022 22.9605L48.6677 25.3024C49.0676 25.5351 49.2058 26.0369 48.9949 26.4296L46.6313 30.4951C46.1076 31.3896 46.1076 32.5024 46.624 33.3969L48.9877 37.4842C49.1186 37.7314 49.1186 38.0223 49.0022 38.2551C48.0131 38.5387 47.1404 39.1133 46.4931 39.8769L44.6022 40.9678C43.7076 41.4769 43.1549 42.4369 43.1549 43.4696V47.4187H40.5295C40.1513 47.4187 39.7876 47.5424 39.4968 47.7533C39.0895 48.0369 38.8131 48.4951 38.7622 49.0187H37.6058C36.5731 49.0187 35.6204 49.5714 35.104 50.466L32.7622 54.5314C32.5295 54.9314 32.0204 55.0696 31.6349 54.8587L29.504 53.6224L27.5622 52.4951C27.3949 52.3933 27.2131 52.3133 27.0313 52.2551C26.7331 52.1532 26.4204 52.1023 26.1076 52.1023C25.7876 52.1023 25.4604 52.1605 25.1549 52.2696C24.9877 52.3206 24.8204 52.4005 24.6677 52.4878L22.6895 53.6369L20.5877 54.8514C20.1731 55.0769 19.6713 54.9314 19.4386 54.5314L17.0968 50.466C16.5804 49.5714 15.6204 49.0187 14.5949 49.0187H9.87491ZM11.8022 63.2805C11.6931 62.9896 11.4167 62.8078 11.1186 62.8078C11.0822 62.8078 11.0386 62.8078 11.0022 62.8151L5.12584 63.7823L12.8131 50.4733H14.5949C15.104 50.4733 15.5767 50.7496 15.8313 51.1932L18.1804 55.266C18.8058 56.3351 20.1295 56.7133 21.2422 56.1387L13.904 68.8514L11.8022 63.2805ZM15.0313 69.8187L23.7586 54.6914L25.3949 53.746C25.8386 53.4915 26.384 53.4915 26.8349 53.7533L28.4349 54.6842L37.1695 69.8187H15.0313ZM38.2895 68.8514L30.9586 56.146C31.3004 56.3278 31.664 56.4151 32.0277 56.4151C32.8204 56.4151 33.5913 56.0006 34.0204 55.2587L36.3622 51.186C36.6167 50.7496 37.0968 50.4733 37.6058 50.4733H38.7549V52.2987C38.7549 53.2805 39.5477 54.0733 40.5295 54.0733H40.624V62.9678C40.5222 63.0478 40.4422 63.1569 40.3986 63.2805L38.2895 68.8514ZM39.4822 69.8187L40.624 66.7933V68.4587C40.624 68.946 40.7549 69.4115 40.9804 69.8187H39.4822ZM52.1149 69.8115H43.4313C42.6894 69.8115 42.0786 69.2005 42.0786 68.4587V54.0733H52.1149V69.8115ZM56.4495 69.8115H53.5695V54.0733H56.4495V69.8115ZM57.1258 52.6187H52.8931V48.8805H57.1258V52.6187ZM67.9404 68.4587C67.9404 69.2005 67.3367 69.8115 66.5877 69.8115H57.904V54.0733H60.2168V57.5787C60.2168 57.8551 60.3767 58.1096 60.6313 58.2332C60.7331 58.2769 60.8349 58.306 60.944 58.306C61.104 58.306 61.2713 58.2478 61.4022 58.1387L63.5186 56.4296L65.6422 58.1387C65.8604 58.3133 66.1586 58.3496 66.4131 58.2332C66.6604 58.1096 66.8276 57.8551 66.8276 57.5787V54.0733H67.9404V68.4587ZM1.09055 71.272H4.3505C4.75249 71.272 5.07777 70.9467 5.07777 70.5447C5.07777 70.1427 4.75249 69.8174 4.3505 69.8174H1.09055C0.688565 69.8174 0.363281 70.1427 0.363281 70.5447C0.363281 70.9467 0.688565 71.272 1.09055 71.272Z" fill="#092D4B"/>
<path d="M47.7227 43.6445C47.7227 45.1499 48.9517 46.379 50.4644 46.379H52.8281C53.2281 46.379 53.5554 46.059 53.5554 45.6518V43.2809C53.5554 41.7682 52.3263 40.5391 50.8136 40.5391H50.4644C48.9517 40.5391 47.7227 41.7682 47.7227 43.2809V43.6445ZM49.1772 43.2809C49.1772 42.5754 49.7517 41.9936 50.4644 41.9936H50.8136C51.519 41.9936 52.1008 42.5754 52.1008 43.2809V44.9245H50.4644C49.7517 44.9245 49.1772 44.35 49.1772 43.6445V43.2809ZM62.9226 43.6445V43.2809C62.9226 41.7682 61.6863 40.5391 60.1808 40.5391H59.8317C58.319 40.5391 57.0899 41.7682 57.0899 43.2809V45.6518C57.0899 46.059 57.4172 46.379 57.8172 46.379H60.1808C61.6863 46.379 62.9226 45.1499 62.9226 43.6445ZM61.4681 43.6445C61.4681 44.35 60.8863 44.9245 60.1808 44.9245H58.5445V43.2809C58.5445 42.5754 59.119 41.9936 59.8317 41.9936H60.1808C60.8863 41.9936 61.4681 42.5754 61.4681 43.2809V43.6445Z" fill="#092D4B"/>
</svg>
